<svg width="647" height="1019" viewBox="0 0 647 1019" fill="none" xmlns="http://www.w3.org/2000/svg">
<path fill-rule="evenodd" clip-rule="evenodd" d="M422.846 591.911L366.311 648.447L370.553 652.689L427.089 596.154L422.846 591.911ZM483.624 539.618L479.382 535.376L535.918 478.839L540.161 483.082L483.624 539.618ZM596.696 426.546L653.232 370.011L648.989 365.768L592.454 422.304L596.696 426.546ZM705.525 309.233L709.767 313.475L766.303 256.94L762.06 252.697L705.525 309.233ZM314.018 709.225L309.775 704.982L253.239 761.518L257.482 765.761L314.018 709.225Z" fill="#3C3CA5"/>
<path fill-rule="evenodd" clip-rule="evenodd" d="M479.382 483.082L535.918 539.619L540.161 535.376L483.624 478.84L479.382 483.082ZM427.089 422.304L370.553 365.769L366.311 370.011L422.846 426.547L427.089 422.304ZM309.775 313.476L314.018 309.233L257.482 252.697L253.239 256.94L309.775 313.476ZM596.696 591.912L592.454 596.154L648.989 652.69L653.232 648.447L596.696 591.912ZM709.767 704.983L705.525 709.225L762.061 765.761L766.303 761.519L709.767 704.983Z" fill="#3C3CA5"/>
</svg>
