<svg width="6" height="220" viewBox="0 0 6 220" fill="none" xmlns="http://www.w3.org/2000/svg">
<path opacity="0.7" fill-rule="evenodd" clip-rule="evenodd" d="M5.99999 20H-5.24542e-06L-7.86805e-06 0H5.99999L5.99999 20ZM1.57356e-05 220L1.30733e-05 200H6.00001L6.00002 220H1.57356e-05ZM1.57356e-05 180H6.00002L6.00001 160H7.86773e-06L1.57356e-05 180ZM6.00001 120L6.00001 140H5.20537e-06L2.66221e-06 120H6.00001ZM6.00001 100H5.2451e-06L-2.66252e-06 80H6L6.00001 100ZM6 60H0L-2.62279e-06 40H6L6 60Z" fill="white"/>
</svg>
