<svg width="514" height="628" viewBox="0 0 514 628" fill="none" xmlns="http://www.w3.org/2000/svg">
<circle cx="75" cy="75" r="72" fill="white" stroke="#3C3CA5" stroke-width="6"/>
<path d="M149 75.5H385V298" stroke="#3C3CA5" stroke-width="4"/>
<path d="M419.36 299.5L385 323.558L350.64 299.5L419.36 299.5Z" fill="white" stroke="#3C3CA5" stroke-width="4"/>
<path d="M128.345 500.169L248.507 461.88" stroke="#3C3CA5" stroke-width="2"/>
<path d="M244.909 450.104L256.902 458.661L252.071 472.579L244.909 450.104Z" stroke="#3C3CA5" stroke-width="2"/>
<path d="M231.412 617.714L303.856 514.484" stroke="#3C3CA5" stroke-width="2"/>
<path d="M293.863 507.29L308.589 506.839L313.172 520.841L293.863 507.29Z" stroke="#3C3CA5" stroke-width="2"/>
<path d="M109.061 372.606L235.174 373.066" stroke="#3C3CA5" stroke-width="2"/>
<path d="M235.366 360.755L244.152 372.581L235.28 384.344L235.366 360.755Z" stroke="#3C3CA5" stroke-width="2"/>
<path fill-rule="evenodd" clip-rule="evenodd" d="M334.381 447.376L320.239 461.518L324.482 465.761L338.624 451.619L334.381 447.376ZM352.766 437.477L348.523 433.234L362.665 419.092L366.908 423.335L352.766 437.477ZM381.05 409.192L395.192 395.05L390.95 390.808L376.807 404.95L381.05 409.192ZM405.092 376.665L409.334 380.908L423.477 366.766L419.234 362.523L405.092 376.665ZM433.376 348.381L437.619 352.624L451.761 338.482L447.518 334.239L433.376 348.381Z" fill="white"/>
<path fill-rule="evenodd" clip-rule="evenodd" d="M433.376 451.619L447.518 465.761L451.761 461.518L437.619 447.376L433.376 451.619ZM423.477 433.234L419.234 437.477L405.092 423.335L409.334 419.092L423.477 433.234ZM395.192 404.95L381.05 390.808L376.808 395.05L390.95 409.192L395.192 404.95ZM362.665 380.908L366.908 376.665L352.766 362.523L348.523 366.766L362.665 380.908ZM334.381 352.624L338.624 348.381L324.482 334.239L320.239 338.482L334.381 352.624Z" fill="white"/>
</svg>
